<mxfile host="app.diagrams.net" agent="Mozilla/5.0 (Windows NT 10.0; Win64; x64) AppleWebKit/537.36 (KHTML, like Gecko) Chrome/130.0.0.0 Safari/537.36" version="24.8.4">
  <diagram name="ページ1" id="jkC7DBFYIMHmfHFSw2ls">
    <mxGraphModel dx="2074" dy="1234" grid="0" gridSize="10" guides="1" tooltips="1" connect="1" arrows="1" fold="1" page="0" pageScale="1" pageWidth="827" pageHeight="1169" math="0" shadow="0">
      <root>
        <mxCell id="0" />
        <mxCell id="1" parent="0" />
        <mxCell id="uNL0XxB8N9niCBaAOZDF-7" value="a-z A-Z _" style="edgeStyle=none;curved=1;rounded=0;orthogonalLoop=1;jettySize=auto;html=1;fontSize=12;startSize=8;endSize=8;" edge="1" parent="1" source="uNL0XxB8N9niCBaAOZDF-1" target="uNL0XxB8N9niCBaAOZDF-6">
          <mxGeometry relative="1" as="geometry" />
        </mxCell>
        <mxCell id="uNL0XxB8N9niCBaAOZDF-9" value="other" style="edgeStyle=none;curved=1;rounded=0;orthogonalLoop=1;jettySize=auto;html=1;fontSize=12;startSize=8;endSize=8;" edge="1" parent="1" source="uNL0XxB8N9niCBaAOZDF-1" target="uNL0XxB8N9niCBaAOZDF-8">
          <mxGeometry relative="1" as="geometry" />
        </mxCell>
        <mxCell id="uNL0XxB8N9niCBaAOZDF-50" value="end" style="edgeStyle=none;curved=1;rounded=0;orthogonalLoop=1;jettySize=auto;html=1;fontSize=12;startSize=8;endSize=8;" edge="1" parent="1" source="uNL0XxB8N9niCBaAOZDF-1" target="uNL0XxB8N9niCBaAOZDF-51">
          <mxGeometry x="-0.1775" y="15" relative="1" as="geometry">
            <mxPoint x="226" y="130.91160220994482" as="targetPoint" />
            <Array as="points">
              <mxPoint x="92" y="157" />
            </Array>
            <mxPoint as="offset" />
          </mxGeometry>
        </mxCell>
        <mxCell id="uNL0XxB8N9niCBaAOZDF-1" value="common0" style="ellipse;whiteSpace=wrap;html=1;aspect=fixed;" vertex="1" parent="1">
          <mxGeometry x="-46" y="34" width="71" height="71" as="geometry" />
        </mxCell>
        <mxCell id="uNL0XxB8N9niCBaAOZDF-2" style="edgeStyle=none;curved=1;rounded=0;orthogonalLoop=1;jettySize=auto;html=1;entryX=1;entryY=0.5;entryDx=0;entryDy=0;fontSize=12;startSize=8;endSize=8;" edge="1" parent="1" source="uNL0XxB8N9niCBaAOZDF-1" target="uNL0XxB8N9niCBaAOZDF-1">
          <mxGeometry relative="1" as="geometry" />
        </mxCell>
        <mxCell id="uNL0XxB8N9niCBaAOZDF-5" value="white space&lt;br&gt;next" style="edgeStyle=none;curved=1;rounded=0;orthogonalLoop=1;jettySize=auto;html=1;fontSize=12;startSize=8;endSize=8;" edge="1" parent="1" source="uNL0XxB8N9niCBaAOZDF-1" target="uNL0XxB8N9niCBaAOZDF-1">
          <mxGeometry relative="1" as="geometry">
            <Array as="points">
              <mxPoint x="76" y="104" />
            </Array>
          </mxGeometry>
        </mxCell>
        <mxCell id="uNL0XxB8N9niCBaAOZDF-12" value="other" style="edgeStyle=none;curved=1;rounded=0;orthogonalLoop=1;jettySize=auto;html=1;fontSize=12;startSize=8;endSize=8;" edge="1" parent="1" source="uNL0XxB8N9niCBaAOZDF-6" target="uNL0XxB8N9niCBaAOZDF-8">
          <mxGeometry relative="1" as="geometry" />
        </mxCell>
        <mxCell id="uNL0XxB8N9niCBaAOZDF-19" value="space&lt;br&gt;next" style="edgeStyle=none;curved=1;rounded=0;orthogonalLoop=1;jettySize=auto;html=1;fontSize=12;startSize=8;endSize=8;entryX=0.5;entryY=0;entryDx=0;entryDy=0;entryPerimeter=0;" edge="1" parent="1" source="uNL0XxB8N9niCBaAOZDF-6" target="uNL0XxB8N9niCBaAOZDF-20">
          <mxGeometry relative="1" as="geometry">
            <mxPoint x="-10.25" y="317" as="targetPoint" />
          </mxGeometry>
        </mxCell>
        <mxCell id="uNL0XxB8N9niCBaAOZDF-6" value="common1" style="ellipse;whiteSpace=wrap;html=1;aspect=fixed;" vertex="1" parent="1">
          <mxGeometry x="-50.5" y="193" width="80" height="80" as="geometry" />
        </mxCell>
        <mxCell id="uNL0XxB8N9niCBaAOZDF-8" value="error" style="ellipse;whiteSpace=wrap;html=1;aspect=fixed;" vertex="1" parent="1">
          <mxGeometry x="-200" y="48" width="80" height="80" as="geometry" />
        </mxCell>
        <mxCell id="uNL0XxB8N9niCBaAOZDF-10" value="a-z A-Z _ 0-9&lt;br&gt;next&lt;br&gt;branchBuffer" style="edgeStyle=none;curved=1;rounded=0;orthogonalLoop=1;jettySize=auto;html=1;fontSize=12;startSize=8;endSize=8;" edge="1" parent="1" source="uNL0XxB8N9niCBaAOZDF-6" target="uNL0XxB8N9niCBaAOZDF-6">
          <mxGeometry relative="1" as="geometry">
            <Array as="points">
              <mxPoint x="94" y="281" />
            </Array>
          </mxGeometry>
        </mxCell>
        <mxCell id="uNL0XxB8N9niCBaAOZDF-15" style="edgeStyle=none;curved=1;rounded=0;orthogonalLoop=1;jettySize=auto;html=1;entryX=0.5;entryY=0;entryDx=0;entryDy=0;fontSize=12;startSize=8;endSize=8;" edge="1" parent="1" source="uNL0XxB8N9niCBaAOZDF-13" target="uNL0XxB8N9niCBaAOZDF-1">
          <mxGeometry relative="1" as="geometry" />
        </mxCell>
        <mxCell id="uNL0XxB8N9niCBaAOZDF-13" value="" style="verticalLabelPosition=bottom;verticalAlign=top;html=1;shape=mxgraph.basic.donut;dx=11.29;" vertex="1" parent="1">
          <mxGeometry x="-40.5" y="-55" width="60" height="57" as="geometry" />
        </mxCell>
        <mxCell id="uNL0XxB8N9niCBaAOZDF-16" value="" style="verticalLabelPosition=bottom;verticalAlign=top;html=1;shape=mxgraph.flowchart.or;" vertex="1" parent="1">
          <mxGeometry x="-305" y="61.5" width="54" height="53" as="geometry" />
        </mxCell>
        <mxCell id="uNL0XxB8N9niCBaAOZDF-17" style="edgeStyle=none;curved=1;rounded=0;orthogonalLoop=1;jettySize=auto;html=1;entryX=1;entryY=0.5;entryDx=0;entryDy=0;entryPerimeter=0;fontSize=12;startSize=8;endSize=8;" edge="1" parent="1" source="uNL0XxB8N9niCBaAOZDF-8" target="uNL0XxB8N9niCBaAOZDF-16">
          <mxGeometry relative="1" as="geometry" />
        </mxCell>
        <mxCell id="uNL0XxB8N9niCBaAOZDF-22" style="edgeStyle=none;curved=1;rounded=0;orthogonalLoop=1;jettySize=auto;html=1;fontSize=12;startSize=8;endSize=8;" edge="1" parent="1" source="uNL0XxB8N9niCBaAOZDF-20" target="uNL0XxB8N9niCBaAOZDF-21">
          <mxGeometry relative="1" as="geometry" />
        </mxCell>
        <mxCell id="uNL0XxB8N9niCBaAOZDF-23" value="var" style="edgeLabel;html=1;align=center;verticalAlign=middle;resizable=0;points=[];fontSize=12;" vertex="1" connectable="0" parent="uNL0XxB8N9niCBaAOZDF-22">
          <mxGeometry x="-0.4746" y="-1" relative="1" as="geometry">
            <mxPoint as="offset" />
          </mxGeometry>
        </mxCell>
        <mxCell id="uNL0XxB8N9niCBaAOZDF-20" value="branchBuffer==" style="strokeWidth=2;html=1;shape=mxgraph.flowchart.decision;whiteSpace=wrap;" vertex="1" parent="1">
          <mxGeometry x="-67.25" y="353" width="113.5" height="58" as="geometry" />
        </mxCell>
        <mxCell id="uNL0XxB8N9niCBaAOZDF-26" value="a-z A-Z _" style="edgeStyle=none;curved=1;rounded=0;orthogonalLoop=1;jettySize=auto;html=1;entryX=0.5;entryY=0;entryDx=0;entryDy=0;fontSize=12;startSize=8;endSize=8;" edge="1" parent="1" source="uNL0XxB8N9niCBaAOZDF-21" target="uNL0XxB8N9niCBaAOZDF-25">
          <mxGeometry relative="1" as="geometry" />
        </mxCell>
        <mxCell id="uNL0XxB8N9niCBaAOZDF-29" value="other" style="edgeStyle=none;curved=1;rounded=0;orthogonalLoop=1;jettySize=auto;html=1;fontSize=12;startSize=8;endSize=8;entryX=1;entryY=0.25;entryDx=0;entryDy=0;" edge="1" parent="1" source="uNL0XxB8N9niCBaAOZDF-21" target="uNL0XxB8N9niCBaAOZDF-28">
          <mxGeometry relative="1" as="geometry" />
        </mxCell>
        <mxCell id="uNL0XxB8N9niCBaAOZDF-21" value="var0" style="ellipse;whiteSpace=wrap;html=1;aspect=fixed;" vertex="1" parent="1">
          <mxGeometry x="-50" y="461" width="80" height="80" as="geometry" />
        </mxCell>
        <mxCell id="uNL0XxB8N9niCBaAOZDF-24" value="white space&lt;br&gt;next" style="edgeStyle=none;curved=1;rounded=0;orthogonalLoop=1;jettySize=auto;html=1;fontSize=12;startSize=8;endSize=8;" edge="1" parent="1" source="uNL0XxB8N9niCBaAOZDF-21" target="uNL0XxB8N9niCBaAOZDF-21">
          <mxGeometry relative="1" as="geometry">
            <Array as="points">
              <mxPoint x="100" y="546" />
            </Array>
          </mxGeometry>
        </mxCell>
        <mxCell id="uNL0XxB8N9niCBaAOZDF-31" value="other" style="edgeStyle=none;curved=1;rounded=0;orthogonalLoop=1;jettySize=auto;html=1;fontSize=12;startSize=8;endSize=8;entryX=1;entryY=0.75;entryDx=0;entryDy=0;" edge="1" parent="1" source="uNL0XxB8N9niCBaAOZDF-25" target="uNL0XxB8N9niCBaAOZDF-28">
          <mxGeometry relative="1" as="geometry" />
        </mxCell>
        <mxCell id="uNL0XxB8N9niCBaAOZDF-33" value=";&lt;div&gt;next&lt;/div&gt;" style="edgeStyle=none;curved=1;rounded=0;orthogonalLoop=1;jettySize=auto;html=1;fontSize=12;startSize=8;endSize=8;entryX=1;entryY=0.25;entryDx=0;entryDy=0;" edge="1" parent="1" source="uNL0XxB8N9niCBaAOZDF-25" target="uNL0XxB8N9niCBaAOZDF-32">
          <mxGeometry relative="1" as="geometry" />
        </mxCell>
        <mxCell id="uNL0XxB8N9niCBaAOZDF-42" value="=&lt;div&gt;next&lt;/div&gt;" style="edgeStyle=none;curved=1;rounded=0;orthogonalLoop=1;jettySize=auto;html=1;fontSize=12;startSize=8;endSize=8;exitX=1;exitY=1;exitDx=0;exitDy=0;" edge="1" parent="1" source="uNL0XxB8N9niCBaAOZDF-25" target="uNL0XxB8N9niCBaAOZDF-40">
          <mxGeometry x="-0.064" y="-22" relative="1" as="geometry">
            <Array as="points">
              <mxPoint x="205" y="746" />
            </Array>
            <mxPoint as="offset" />
          </mxGeometry>
        </mxCell>
        <mxCell id="uNL0XxB8N9niCBaAOZDF-25" value="var1" style="ellipse;whiteSpace=wrap;html=1;aspect=fixed;" vertex="1" parent="1">
          <mxGeometry x="-50.5" y="586" width="80" height="80" as="geometry" />
        </mxCell>
        <mxCell id="uNL0XxB8N9niCBaAOZDF-28" value="to error" style="rounded=1;whiteSpace=wrap;html=1;absoluteArcSize=1;arcSize=14;strokeWidth=2;" vertex="1" parent="1">
          <mxGeometry x="-220" y="543" width="100" height="30" as="geometry" />
        </mxCell>
        <mxCell id="uNL0XxB8N9niCBaAOZDF-30" value="a-z A-Z 0-9 _&lt;br&gt;next&lt;br&gt;nameBuffer" style="edgeStyle=none;curved=1;rounded=0;orthogonalLoop=1;jettySize=auto;html=1;fontSize=12;startSize=8;endSize=8;" edge="1" parent="1" source="uNL0XxB8N9niCBaAOZDF-25" target="uNL0XxB8N9niCBaAOZDF-25">
          <mxGeometry relative="1" as="geometry">
            <Array as="points">
              <mxPoint x="93" y="678" />
            </Array>
          </mxGeometry>
        </mxCell>
        <mxCell id="uNL0XxB8N9niCBaAOZDF-32" value="register variable (nameBuffer)&lt;br&gt;to common0" style="rounded=1;whiteSpace=wrap;html=1;absoluteArcSize=1;arcSize=14;strokeWidth=2;" vertex="1" parent="1">
          <mxGeometry x="-305" y="725" width="177" height="45" as="geometry" />
        </mxCell>
        <mxCell id="uNL0XxB8N9niCBaAOZDF-36" style="edgeStyle=none;curved=1;rounded=0;orthogonalLoop=1;jettySize=auto;html=1;entryX=1;entryY=0.75;entryDx=0;entryDy=0;fontSize=12;startSize=8;endSize=8;" edge="1" parent="1" source="uNL0XxB8N9niCBaAOZDF-34" target="uNL0XxB8N9niCBaAOZDF-32">
          <mxGeometry relative="1" as="geometry" />
        </mxCell>
        <mxCell id="uNL0XxB8N9niCBaAOZDF-37" value=";&lt;div&gt;next&lt;/div&gt;" style="edgeLabel;html=1;align=center;verticalAlign=middle;resizable=0;points=[];fontSize=12;" vertex="1" connectable="0" parent="uNL0XxB8N9niCBaAOZDF-36">
          <mxGeometry x="0.0471" y="-1" relative="1" as="geometry">
            <mxPoint as="offset" />
          </mxGeometry>
        </mxCell>
        <mxCell id="uNL0XxB8N9niCBaAOZDF-41" value="=&lt;div&gt;next&lt;/div&gt;" style="edgeStyle=none;curved=1;rounded=0;orthogonalLoop=1;jettySize=auto;html=1;fontSize=12;startSize=8;endSize=8;" edge="1" parent="1" source="uNL0XxB8N9niCBaAOZDF-34" target="uNL0XxB8N9niCBaAOZDF-40">
          <mxGeometry relative="1" as="geometry" />
        </mxCell>
        <mxCell id="uNL0XxB8N9niCBaAOZDF-34" value="var2" style="ellipse;whiteSpace=wrap;html=1;aspect=fixed;" vertex="1" parent="1">
          <mxGeometry x="-45.5" y="725" width="75.5" height="75.5" as="geometry" />
        </mxCell>
        <mxCell id="uNL0XxB8N9niCBaAOZDF-35" value="space&lt;br&gt;next" style="edgeStyle=none;curved=1;rounded=0;orthogonalLoop=1;jettySize=auto;html=1;fontSize=12;startSize=8;endSize=8;" edge="1" parent="1" source="uNL0XxB8N9niCBaAOZDF-25" target="uNL0XxB8N9niCBaAOZDF-34">
          <mxGeometry relative="1" as="geometry" />
        </mxCell>
        <mxCell id="uNL0XxB8N9niCBaAOZDF-38" value="white space&lt;br&gt;next" style="edgeStyle=none;curved=1;rounded=0;orthogonalLoop=1;jettySize=auto;html=1;fontSize=12;startSize=8;endSize=8;" edge="1" parent="1" source="uNL0XxB8N9niCBaAOZDF-34" target="uNL0XxB8N9niCBaAOZDF-34">
          <mxGeometry relative="1" as="geometry">
            <Array as="points">
              <mxPoint x="90" y="797" />
            </Array>
          </mxGeometry>
        </mxCell>
        <mxCell id="uNL0XxB8N9niCBaAOZDF-39" value="other" style="edgeStyle=none;curved=1;rounded=0;orthogonalLoop=1;jettySize=auto;html=1;entryX=0.847;entryY=0.971;entryDx=0;entryDy=0;entryPerimeter=0;fontSize=12;startSize=8;endSize=8;" edge="1" parent="1" source="uNL0XxB8N9niCBaAOZDF-34" target="uNL0XxB8N9niCBaAOZDF-28">
          <mxGeometry relative="1" as="geometry" />
        </mxCell>
        <mxCell id="uNL0XxB8N9niCBaAOZDF-45" value="other" style="edgeStyle=none;curved=1;rounded=0;orthogonalLoop=1;jettySize=auto;html=1;fontSize=12;startSize=8;endSize=8;" edge="1" parent="1" source="uNL0XxB8N9niCBaAOZDF-40" target="uNL0XxB8N9niCBaAOZDF-44">
          <mxGeometry relative="1" as="geometry" />
        </mxCell>
        <mxCell id="uNL0XxB8N9niCBaAOZDF-40" value="var3" style="ellipse;whiteSpace=wrap;html=1;aspect=fixed;" vertex="1" parent="1">
          <mxGeometry x="140" y="832" width="80" height="80" as="geometry" />
        </mxCell>
        <mxCell id="uNL0XxB8N9niCBaAOZDF-43" value="white space&lt;div&gt;next&lt;/div&gt;" style="edgeStyle=none;curved=1;rounded=0;orthogonalLoop=1;jettySize=auto;html=1;fontSize=12;startSize=8;endSize=8;" edge="1" parent="1" source="uNL0XxB8N9niCBaAOZDF-40" target="uNL0XxB8N9niCBaAOZDF-40">
          <mxGeometry relative="1" as="geometry">
            <Array as="points">
              <mxPoint x="282" y="919" />
            </Array>
          </mxGeometry>
        </mxCell>
        <mxCell id="uNL0XxB8N9niCBaAOZDF-48" value=";&lt;br&gt;next" style="edgeStyle=none;curved=1;rounded=0;orthogonalLoop=1;jettySize=auto;html=1;entryX=1;entryY=0.5;entryDx=0;entryDy=0;fontSize=12;startSize=8;endSize=8;" edge="1" parent="1" source="uNL0XxB8N9niCBaAOZDF-44" target="uNL0XxB8N9niCBaAOZDF-47">
          <mxGeometry relative="1" as="geometry" />
        </mxCell>
        <mxCell id="uNL0XxB8N9niCBaAOZDF-44" value="var4" style="ellipse;whiteSpace=wrap;html=1;aspect=fixed;" vertex="1" parent="1">
          <mxGeometry x="140" y="968" width="80" height="80" as="geometry" />
        </mxCell>
        <mxCell id="uNL0XxB8N9niCBaAOZDF-46" value="other&lt;br&gt;next&lt;br&gt;&lt;div&gt;expressionBuffer&lt;/div&gt;" style="edgeStyle=none;curved=1;rounded=0;orthogonalLoop=1;jettySize=auto;html=1;fontSize=12;startSize=8;endSize=8;" edge="1" parent="1" source="uNL0XxB8N9niCBaAOZDF-44" target="uNL0XxB8N9niCBaAOZDF-44">
          <mxGeometry relative="1" as="geometry">
            <Array as="points">
              <mxPoint x="280" y="1063" />
            </Array>
            <mxPoint as="offset" />
          </mxGeometry>
        </mxCell>
        <mxCell id="uNL0XxB8N9niCBaAOZDF-47" value="analized = expressionAnalizer (expressionBuffer)&lt;br&gt;initialize variable (nameBuffer = analized)&lt;br&gt;to common0" style="rounded=1;whiteSpace=wrap;html=1;" vertex="1" parent="1">
          <mxGeometry x="-213" y="978" width="292" height="60" as="geometry" />
        </mxCell>
        <mxCell id="uNL0XxB8N9niCBaAOZDF-53" style="edgeStyle=none;curved=1;rounded=0;orthogonalLoop=1;jettySize=auto;html=1;fontSize=12;startSize=8;endSize=8;" edge="1" parent="1" source="uNL0XxB8N9niCBaAOZDF-51" target="uNL0XxB8N9niCBaAOZDF-52">
          <mxGeometry relative="1" as="geometry" />
        </mxCell>
        <mxCell id="uNL0XxB8N9niCBaAOZDF-51" value="success" style="ellipse;whiteSpace=wrap;html=1;aspect=fixed;" vertex="1" parent="1">
          <mxGeometry x="183" y="105" width="80" height="80" as="geometry" />
        </mxCell>
        <mxCell id="uNL0XxB8N9niCBaAOZDF-52" value="" style="verticalLabelPosition=bottom;verticalAlign=top;html=1;shape=mxgraph.flowchart.or;" vertex="1" parent="1">
          <mxGeometry x="305" y="120" width="50" height="50" as="geometry" />
        </mxCell>
      </root>
    </mxGraphModel>
  </diagram>
</mxfile>
